<svg width="864" height="627" viewBox="0 0 864 627" fill="none" xmlns="http://www.w3.org/2000/svg">
<g clip-path="url(#clip0_3_4)">
<path d="M130.057 351.44L75.5371 433.01V273.26L6.57707 298.37C1.38707 300.25 -1.28293 305.99 0.607067 311.18C2.49707 316.37 8.22707 319.05 13.4171 317.16L55.5371 301.83V438.7C55.5371 447.26 60.1271 453.97 67.5071 456.2C69.1271 456.7 70.7871 456.93 72.4571 456.93C79.2971 456.93 86.2771 452.94 90.8871 446.04L134.577 380.66V347.74C132.797 348.46 131.207 349.71 130.057 351.44V351.44Z" fill="black"/>
<path d="M362.717 106.33C324.427 121.34 291.907 148.15 266.897 180.47C241.797 213.56 221.297 250.13 198.577 284.89C197.157 287.14 194.977 288.62 192.577 289.23V258.78C213.177 229.28 232.787 199.15 255.907 171.47C283.587 138.9 319.137 112.23 359.787 98.45C364.907 96.84 367.757 104.13 362.717 106.33V106.33Z" fill="black"/>
<path d="M247.687 292.28C213.807 304.61 212.297 320.89 212.297 353.63V405.68C212.297 411.2 207.817 415.68 202.297 415.68C196.777 415.68 192.297 411.2 192.297 405.68V353.63C192.297 348.15 192.297 342.63 192.577 337.16C193.847 312.02 200.967 288 240.847 273.48C246.037 271.59 251.777 274.27 253.667 279.46C255.557 284.65 252.877 290.39 247.687 292.28V292.28Z" fill="black"/>
<path d="M862.547 385.09C860.657 379.9 854.927 377.22 849.737 379.11L629.177 459.39C620.077 462.7 613.247 462.75 608.877 459.54C602.887 455.14 600.727 444.73 600.107 437.44L690.817 404.42L691.137 397.78C691.297 394.47 692.167 365.02 673.417 351.2C662.837 343.4 649.007 342.53 632.327 348.6C603.877 358.96 591.227 378.87 585.617 393.74C580.247 408 580.247 420.45 580.327 423.35L540.477 437.85V394.69C540.477 361.95 541.977 345.67 575.867 333.33C581.057 331.45 583.737 325.71 581.847 320.52C579.957 315.33 574.217 312.65 569.027 314.54C520.477 332.21 520.477 363.97 520.477 394.69V445.13L496.077 454.01C490.887 455.9 488.217 461.64 490.107 466.83C491.587 470.89 495.417 473.41 499.507 473.41C500.637 473.41 501.797 473.22 502.917 472.81L520.477 466.42V545.53C520.477 578.27 518.977 594.55 485.087 606.89C479.897 608.77 477.227 614.51 479.117 619.7C480.587 623.76 484.427 626.29 488.507 626.29C489.647 626.29 490.797 626.09 491.927 625.68C540.477 608.01 540.477 576.25 540.477 545.53V459.14L580.757 444.48C582.277 454.63 586.347 467.76 596.967 475.61C602.677 479.82 609.357 481.93 616.937 481.93C622.777 481.93 629.147 480.68 636.017 478.18L856.577 397.9C861.767 396.01 864.437 390.28 862.547 385.09V385.09ZM639.167 367.4C644.207 365.56 648.627 364.64 652.387 364.64C656.147 364.64 659.127 365.52 661.527 367.28C667.907 371.95 670.247 382.77 670.947 390.37L600.637 415.96C602.007 403.7 608.597 378.52 639.167 367.4V367.4Z" fill="black"/>
<path d="M174.917 317.22V419.3C174.917 424.83 170.437 429.3 164.917 429.3C159.397 429.3 154.917 424.83 154.917 419.3V317.22C154.917 311.69 159.397 307.22 164.917 307.22C167.987 307.22 170.737 308.6 172.577 310.79C174.037 312.53 174.917 314.77 174.917 317.22Z" fill="black"/>
<path d="M355.707 363.6C346.447 366.97 338.207 368.66 331.037 368.66C323.087 368.66 316.457 366.58 311.197 362.43C299.487 353.18 300.027 338.05 300.317 334.57V273.12L278.647 281.01C277.517 281.42 276.367 281.61 275.227 281.61C271.147 281.61 267.307 279.09 265.827 275.03C263.937 269.84 266.617 264.1 271.807 262.21L300.317 251.84V208.97C300.317 203.45 304.797 198.97 310.317 198.97C315.837 198.97 320.317 203.45 320.317 208.97V244.56L342.577 236.46C347.767 234.57 353.497 237.24 355.387 242.43C357.277 247.62 354.607 253.36 349.417 255.25L320.317 265.84V337.61C320.317 337.94 320.297 338.28 320.267 338.6V338.63C320.437 341.09 321.107 344.81 323.637 346.77C325.547 348.25 331.827 351.01 348.867 344.81C354.057 342.92 359.797 345.59 361.677 350.78C363.567 355.97 360.897 361.71 355.707 363.6V363.6Z" fill="black"/>
<path d="M329.477 593.52C323.227 593.52 317.877 591.94 313.347 588.78C300.317 579.68 300.317 561.26 300.317 550.25V406.11C300.317 400.59 304.797 396.11 310.317 396.11C315.837 396.11 320.317 400.59 320.317 406.11V550.25C320.317 556.42 320.317 569.25 324.797 572.38C326.137 573.32 330.557 575.02 342.547 570.62L430.047 538.77C435.237 536.88 440.977 539.56 442.867 544.75C444.757 549.94 442.077 555.68 436.887 557.57L349.417 589.41C341.937 592.16 335.317 593.53 329.487 593.53L329.477 593.52Z" fill="black"/>
<path d="M385.417 355.19C381.337 355.19 377.497 352.67 376.017 348.61C374.127 343.42 376.807 337.68 381.997 335.79L403.727 327.88L404.237 327.75C406.147 327.24 423.577 322.01 423.577 301.94V220.13C423.577 214.61 428.057 210.13 433.577 210.13C439.097 210.13 443.577 214.61 443.577 220.13V301.94C443.577 330.48 421.687 343.78 409.617 347.01L388.837 354.57C387.707 354.98 386.557 355.18 385.417 355.18V355.19Z" fill="black"/>
<path d="M666.687 247.3L645.847 254.88C643.757 255.82 637.147 258.5 629.657 258.5C625.327 258.5 620.697 257.6 616.477 254.95C611.287 251.68 605.107 244.65 605.107 229.72V10C605.107 4.47 609.577 0 615.107 0C620.637 0 625.107 4.47 625.107 10V229.72C625.107 234.56 626.117 237.37 627.127 238.02C628.917 239.16 634.317 238.19 637.757 236.59L638.617 236.23L659.847 228.5C665.037 226.62 670.767 229.29 672.657 234.48C674.547 239.67 671.877 245.41 666.687 247.3V247.3Z" fill="black"/>
<path d="M535.667 273.59C533.227 274.84 531.287 275.41 530.727 275.56L530.207 275.69L514.317 281.47C514.737 281.24 515.187 281.04 515.657 280.87L535.667 273.59Z" fill="black"/>
<path d="M590.907 274.77L565.247 284.11C564.157 284.78 562.917 285.24 561.597 285.44H561.587L543.427 292.05C540.787 293.33 538.287 294.24 536.107 294.83L515.327 302.39C514.197 302.8 513.037 302.99 511.907 302.99C507.817 302.99 503.987 300.47 502.507 296.41C500.617 291.22 503.287 285.48 508.477 283.6L514.317 281.47L530.207 275.69L530.727 275.56C531.287 275.41 533.227 274.84 535.667 273.59H535.687C541.467 270.62 550.067 263.85 550.067 249.75V181.44L498.387 200.25C496.917 200.87 477.867 209.3 477.867 230.32V303.56C477.867 309.09 473.397 313.56 467.867 313.56C462.337 313.56 457.867 309.09 457.867 303.56V230.32C457.867 195.09 489.787 182.14 491.147 181.61L491.377 181.52L556.637 157.76C561.837 155.87 567.567 158.55 569.457 163.74C569.897 164.96 570.097 166.21 570.057 167.42C570.067 167.6 570.067 167.77 570.067 167.94V261.07L584.067 255.97C589.257 254.09 594.997 256.76 596.877 261.95C598.767 267.14 596.097 272.88 590.907 274.77V274.77Z" fill="black"/>
<path d="M467.867 543.3C462.347 543.3 457.867 538.82 457.867 533.3V442.25C457.867 436.73 462.347 432.25 467.867 432.25C473.387 432.25 477.867 436.73 477.867 442.25V533.3C477.867 538.82 473.387 543.3 467.867 543.3Z" fill="black"/>
</g>
<defs>
<clipPath id="clip0_3_4">
<rect width="863.15" height="626.29" fill="white"/>
</clipPath>
</defs>
</svg>
